<svg id="Layer_1" data-name="Layer 1" xmlns="http://www.w3.org/2000/svg" viewBox="0 0 500 500"><defs><style>.cls-1{fill:none;stroke:#231f20;stroke-linecap:round;stroke-miterlimit:10;stroke-width:2px;}.cls-2{fill:#f14742;}.cls-3{fill:#fab9a7;}.cls-4{fill:#463836;}.cls-5{fill:#ffd24d;}.cls-6{fill:#fee191;}.cls-7{fill:#cd3f39;}.cls-8{fill:#c2b8b9;}.cls-9{fill:#1b4145;}.cls-10{fill:#fff;}.cls-11{fill:#8b7e7f;}.cls-12{fill:#609399;}.cls-13{fill:#6fc5d6;}.cls-14{fill:#b4e5ea;}.cls-15{fill:#605353;}.cls-16{fill:#ece7ea;}.cls-17{fill:#f99d88;}.cls-18{fill:#d6ced1;}.cls-19{fill:#e4eaf8;}.cls-20{fill:#ff5050;}.cls-21{fill:#707487;}.cls-22{fill:#7f8499;}.cls-23{fill:#ffdc64;}.cls-24{fill:#7df5a5;}.cls-25{fill:#d5dced;}.cls-26{fill:#464655;}.cls-27{fill:#fad4c6;}.cls-28{fill:#f5dcb4;}.cls-29{fill:#d29b6e;}.cls-30{fill:#f0c087;}.cls-31{fill:#694b4b;}.cls-32{fill:#00c3ff;}.cls-33{fill:#5b5d6e;}.cls-34{fill:#a0ffb4;}.cls-35{fill:#615454;}.cls-36{fill:#8a7e7f;}.cls-37{fill:#ffd14d;}.cls-38{fill:#fff1cd;}.cls-39{fill:#c1272d;}</style></defs><title>learningmodel</title><circle class="cls-1" cx="253.33" cy="251.46" r="189.72"/><path class="cls-2" d="M321.5,69.24a5.64,5.64,0,1,0,0,11.28l.56,0V69.27Z"/><path class="cls-2" d="M367,69.24a5.64,5.64,0,1,1,0,11.28l-.56,0V69.27Z"/><path class="cls-2" d="M372,121.1a28.12,28.12,0,0,0-55.52,0Z"/><circle class="cls-3" cx="344.25" cy="74.89" r="18.09"/><path class="cls-4" d="M344.25,86.36h-20.1a1.13,1.13,0,0,1-1-.61,23.73,23.73,0,1,1,42.2,0,1.13,1.13,0,0,1-2-1,21.2,21.2,0,0,0,2.38-9.83,21.48,21.48,0,0,0-43,0,21.19,21.19,0,0,0,2.08,9.22h19.4a1.13,1.13,0,0,1,0,2.26Z"/><path class="cls-4" d="M306.2,94.84l-14.88,15.87a1.48,1.48,0,0,0,2.09,2.09l15.87-14.88Z"/><polygon class="cls-5" points="310.52 102.95 308.31 100.75 303.9 103.48 301.18 107.89 303.38 110.09 310.52 102.95"/><rect class="cls-6" x="296.13" y="95.7" width="10.1" height="10.1" transform="translate(16.97 242.47) rotate(-45)"/><path class="cls-2" d="M315.21,95.67c-4.26,4.26-6.23,3.21-8.1,1.35s-2.91-3.83,1.35-8.1a4.77,4.77,0,0,1,6.75,6.75Z"/><circle class="cls-7" cx="307.88" cy="93.02" r="0.45"/><circle class="cls-7" cx="308.07" cy="94.66" r="0.45"/><path class="cls-8" d="M394.9,113.86v7.43a.38.38,0,0,0,.76,0v-7.43Z"/><path class="cls-8" d="M398.78,109.6v11.7a.38.38,0,0,0,.76,0V109.6Z"/><rect class="cls-2" x="378.78" y="98.51" width="13.2" height="22.65"/><rect class="cls-9" x="380.29" y="100.02" width="10.18" height="7.55"/><circle class="cls-10" cx="385.38" cy="114.37" r="4.26"/><circle class="cls-2" cx="385.38" cy="114.37" r="1.66"/><path class="cls-9" d="M395.28,107.37a1.79,1.79,0,0,0-.58,3.48h1.15a1.79,1.79,0,0,0-.58-3.48Z"/><path class="cls-9" d="M399.15,103.14a1.79,1.79,0,0,0-.58,3.48h1.15a1.79,1.79,0,0,0-.58-3.48Z"/><rect class="cls-11" x="394.7" y="109.73" width="1.15" height="4.6"/><rect class="cls-11" x="398.58" y="105.5" width="1.15" height="4.6"/><path class="cls-9" d="M402.52,96.3,402,97.86c-2-.59-4.14-3.15-7-4a4.55,4.55,0,0,0-3.78.38l-.85-.25.41-5.17Z"/><path class="cls-12" d="M391.89,89.13,390.44,94l-.85-.25a4.55,4.55,0,0,0-2.95-2.39c-2.85-.85-6.07.09-8-.49l.47-1.56Z"/><path class="cls-13" d="M407.22,80.56l-4.7,15.74c-2-.59-4.14-3.15-7-4a4.55,4.55,0,0,0-3.78.38l-.85-.25.06-7.8,4.23-6.55a4.45,4.45,0,0,1,5-1.51C403.08,77.41,405.25,80,407.22,80.56Z"/><path class="cls-14" d="M395.19,78.07,390.9,92.42l-.85-.25a4.55,4.55,0,0,0-2.95-2.39c-2.85-.85-6.07.09-8-.49l4.7-15.74c2,.59,5.19-.36,8,.49A4.45,4.45,0,0,1,395.19,78.07Z"/><path class="cls-13" d="M424,221.06h-3.74a.43.43,0,0,0-.43.43v4.42h4.61v-4.42A.43.43,0,0,0,424,221.06Z"/><path class="cls-13" d="M431.55,221.06h-3.74a.43.43,0,0,0-.43.43v4.42H432v-4.42A.43.43,0,0,0,431.55,221.06Z"/><path class="cls-2" d="M439.14,221.06H435.4a.43.43,0,0,0-.43.43v4.42h4.61v-4.42A.43.43,0,0,0,439.14,221.06Z"/><path class="cls-4" d="M443,247.56a1.39,1.39,0,0,1-1.39,1.39H405.37a1.39,1.39,0,0,1-1.39-1.39v-22a1.39,1.39,0,0,1,1.39-1.39h36.29a1.39,1.39,0,0,1,1.39,1.39v22Z"/><rect class="cls-8" x="419.79" y="231.75" width="19.78" height="9.63"/><circle class="cls-10" cx="424.91" cy="236.56" r="1.95"/><circle class="cls-10" cx="434.46" cy="236.56" r="1.95"/><path class="cls-15" d="M407.5,244.35a.69.69,0,1,0,.69.69A.7.7,0,0,0,407.5,244.35Z"/><path class="cls-15" d="M411,244.35a.69.69,0,1,0,.69.69A.7.7,0,0,0,411,244.35Z"/><path class="cls-15" d="M414.44,244.35a.69.69,0,1,0,.69.69A.7.7,0,0,0,414.44,244.35Z"/><path class="cls-15" d="M407.5,240.88a.69.69,0,1,0,.69.69A.7.7,0,0,0,407.5,240.88Z"/><path class="cls-15" d="M411,240.88a.69.69,0,1,0,.69.69A.7.7,0,0,0,411,240.88Z"/><path class="cls-15" d="M414.44,240.88a.69.69,0,1,0,.69.69A.7.7,0,0,0,414.44,240.88Z"/><path class="cls-15" d="M407.5,237.4a.69.69,0,1,0,.69.69A.7.7,0,0,0,407.5,237.4Z"/><path class="cls-15" d="M411,237.4a.69.69,0,1,0,.69.69A.7.7,0,0,0,411,237.4Z"/><path class="cls-15" d="M414.44,237.4a.69.69,0,1,0,.69.69A.7.7,0,0,0,414.44,237.4Z"/><path class="cls-15" d="M407.5,233.93a.69.69,0,1,0,.69.69A.7.7,0,0,0,407.5,233.93Z"/><path class="cls-15" d="M411,233.93a.69.69,0,1,0,.69.69A.7.7,0,0,0,411,233.93Z"/><path class="cls-15" d="M414.44,233.93a.69.69,0,1,0,.69.69A.7.7,0,0,0,414.44,233.93Z"/><path class="cls-15" d="M407.5,230.46a.69.69,0,1,0,.69.69A.7.7,0,0,0,407.5,230.46Z"/><path class="cls-15" d="M411,230.46a.69.69,0,1,0,.69.69A.7.7,0,0,0,411,230.46Z"/><path class="cls-15" d="M414.44,230.46a.69.69,0,1,0,.69.69A.7.7,0,0,0,414.44,230.46Z"/><polygon class="cls-16" points="445.63 205.79 445.63 246.32 450.96 248.46 453.09 253.79 478.25 253.79 478.25 205.79 445.63 205.79"/><path class="cls-11" d="M472.92,248.19H466a.8.8,0,1,1,0-1.6h6.87a.8.8,0,1,1,0,1.6Z"/><path class="cls-11" d="M472.92,214.06H451a.8.8,0,1,1,0-1.6h22a.8.8,0,0,1,0,1.6Z"/><path class="cls-11" d="M472.92,218.32H451a.8.8,0,1,1,0-1.6h22a.8.8,0,0,1,0,1.6Z"/><path class="cls-11" d="M472.92,222.59H451a.8.8,0,0,1,0-1.6h22a.8.8,0,0,1,0,1.6Z"/><path class="cls-11" d="M472.92,226.86H451a.8.8,0,0,1,0-1.6h22a.8.8,0,0,1,0,1.6Z"/><path class="cls-11" d="M472.92,231.12H451a.8.8,0,1,1,0-1.6h22a.8.8,0,0,1,0,1.6Z"/><path class="cls-11" d="M472.92,235.39H451a.8.8,0,1,1,0-1.6h22a.8.8,0,1,1,0,1.6Z"/><polygon class="cls-8" points="490.29 221.82 489.76 218.28 486.22 217.75 483.95 220.01 484.48 223.56 488.03 224.08 490.29 221.82"/><path class="cls-4" d="M463,244.25a.53.53,0,0,0,.75.75l3.32-2,.45-2.57-2.57.45Z"/><polygon class="cls-17" points="467.78 236.18 464.99 240.93 467.11 243.05 471.86 240.25 471.33 236.71 467.78 236.18"/><path class="cls-2" d="M492.78,219.33a2.88,2.88,0,1,0-4.07-4.07l-2.49,2.49,4.07,4.07Z"/><rect class="cls-5" x="466.47" y="227.25" width="22.87" height="5.76" transform="translate(-22.75 405.33) rotate(-45)"/><polygon class="cls-18" points="445.63 246.32 453.09 253.79 453.09 246.32 445.63 246.32"/><path class="cls-13" d="M459.62,245.6a11.79,11.79,0,0,0-4.47.87,18.4,18.4,0,0,0-35.74,0,11.83,11.83,0,1,0-4.47,22.78h44.68a11.83,11.83,0,1,0,0-23.65Z"/><path class="cls-9" d="M441.35,261.44l-3.11-4.66-.08-.11,0,0-.07-.07,0,0-.08-.06,0,0-.11-.07-.12-.05h0l-.1,0h0l-.1,0h-.34l-.1,0h0l-.1,0h0l-.12.05-.12.07,0,0-.08.06,0,0-.07.07,0,0-.08.11-3.11,4.66a1.16,1.16,0,1,0,1.94,1.29l1-1.46v33.3a1.16,1.16,0,0,0,2.33,0v-33.3l1,1.46a1.17,1.17,0,0,0,1.94-1.29Z"/><path class="cls-19" d="M401.45,388.68H326.79a1.52,1.52,0,0,1-1.52-1.52V368.87a1.52,1.52,0,0,1,1.52-1.52h74.66a1.52,1.52,0,0,1,1.52,1.52v18.28A1.52,1.52,0,0,1,401.45,388.68Z"/><path class="cls-20" d="M343.55,388.68H326.79a1.52,1.52,0,0,1-1.52-1.52V368.87a1.52,1.52,0,0,1,1.52-1.52h16.76a1.52,1.52,0,0,1,1.52,1.52v18.28A1.52,1.52,0,0,1,343.55,388.68Z"/><path class="cls-21" d="M377.07,376.49h-25.9a1.52,1.52,0,0,1,0-3h25.9a1.52,1.52,0,0,1,0,3Z"/><path class="cls-22" d="M395.35,382.58h-29a1.52,1.52,0,0,1,0-3h29a1.52,1.52,0,1,1,0,3Z"/><path class="cls-22" d="M360.31,382.58h-9.14a1.52,1.52,0,0,1,0-3h9.14a1.52,1.52,0,0,1,0,3Z"/><path class="cls-10" d="M335.17,381.06a1.52,1.52,0,0,1,0-3,2.29,2.29,0,1,0-2.29-2.29,1.52,1.52,0,1,1-3,0,5.33,5.33,0,1,1,5.33,5.33Z"/><path class="cls-10" d="M335.18,385.63a1.52,1.52,0,0,1,0-3h0a1.52,1.52,0,0,1,0,3Z"/><path class="cls-19" d="M401.45,416.1H326.79a1.52,1.52,0,0,1-1.52-1.52V396.3a1.52,1.52,0,0,1,1.52-1.52h74.66A1.52,1.52,0,0,1,403,396.3v18.28A1.52,1.52,0,0,1,401.45,416.1Z"/><path class="cls-23" d="M343.55,416.1H326.79a1.52,1.52,0,0,1-1.52-1.52V396.3a1.52,1.52,0,0,1,1.52-1.52h16.76a1.52,1.52,0,0,1,1.52,1.52v18.28A1.52,1.52,0,0,1,343.55,416.1Z"/><path class="cls-21" d="M377.07,403.91h-25.9a1.52,1.52,0,0,1,0-3h25.9a1.52,1.52,0,0,1,0,3Z"/><path class="cls-22" d="M360.31,410h-9.14a1.52,1.52,0,0,1,0-3h9.14a1.52,1.52,0,0,1,0,3Z"/><path class="cls-10" d="M335.17,408.49a1.52,1.52,0,0,1,0-3,2.29,2.29,0,1,0-2.29-2.29,1.52,1.52,0,1,1-3,0,5.33,5.33,0,1,1,5.33,5.33Z"/><path class="cls-10" d="M335.18,413.06a1.52,1.52,0,0,1,0-3h0a1.52,1.52,0,0,1,0,3Z"/><path class="cls-19" d="M401.45,443.53H326.79a1.52,1.52,0,0,1-1.52-1.52V423.72a1.52,1.52,0,0,1,1.52-1.52h74.66a1.52,1.52,0,0,1,1.52,1.52V442A1.52,1.52,0,0,1,401.45,443.53Z"/><path class="cls-24" d="M343.55,443.53H326.79a1.52,1.52,0,0,1-1.52-1.52V423.72a1.52,1.52,0,0,1,1.52-1.52h16.76a1.52,1.52,0,0,1,1.52,1.52V442A1.52,1.52,0,0,1,343.55,443.53Z"/><path class="cls-21" d="M377.07,431.34h-25.9a1.52,1.52,0,0,1,0-3h25.9a1.52,1.52,0,0,1,0,3Z"/><path class="cls-22" d="M360.31,437.44h-9.14a1.52,1.52,0,0,1,0-3h9.14a1.52,1.52,0,0,1,0,3Z"/><path class="cls-10" d="M335.17,435.91a1.52,1.52,0,0,1,0-3,2.29,2.29,0,1,0-2.29-2.29,1.52,1.52,0,0,1-3,0,5.33,5.33,0,1,1,5.33,5.33Z"/><path class="cls-10" d="M335.18,440.48a1.52,1.52,0,0,1,0-3h0a1.52,1.52,0,0,1,0,3Z"/><path class="cls-25" d="M401.45,422.2h-7.62v9a3.81,3.81,0,0,0,5.9,3.19l.61-.4,2.63,6.36V423.72A1.52,1.52,0,0,0,401.45,422.2Z"/><path class="cls-25" d="M400.33,409.6a3.78,3.78,0,0,0-2.69-1.12,3.82,3.82,0,0,0-3.81,3.81v3.81h7.62a1.52,1.52,0,0,0,1.52-1.52v-2.34Z"/><path class="cls-26" d="M396.88,412.3v18.94a.76.76,0,0,0,1.18.64l3.69-2.42,4.72,11.41a1.52,1.52,0,0,0,2,.82l2.31-1a1.52,1.52,0,0,0,.82-2l-4.72-11.41,4.33-.88a.76.76,0,0,0,.39-1.29l-13.41-13.41A.76.76,0,0,0,396.88,412.3Z"/><path class="cls-22" d="M392.31,410H366.4a1.52,1.52,0,0,1-1.52-1.52h0A1.52,1.52,0,0,1,366.4,407h25.9a1.52,1.52,0,0,1,1.52,1.52h0A1.52,1.52,0,0,1,392.31,410Z"/><path class="cls-22" d="M392.31,437.44H366.4a1.52,1.52,0,0,1-1.52-1.52h0a1.52,1.52,0,0,1,1.52-1.52h25.9a1.52,1.52,0,0,1,1.52,1.52h0A1.52,1.52,0,0,1,392.31,437.44Z"/><path class="cls-2" d="M114.63,426.77a20.75,20.75,0,0,0-19.23,13h38.46A20.75,20.75,0,0,0,114.63,426.77Z"/><circle class="cls-27" cx="114.63" cy="409.98" r="12.97"/><path class="cls-2" d="M192.05,426.77a20.75,20.75,0,0,0-19.23,13h38.46A20.75,20.75,0,0,0,192.05,426.77Z"/><circle class="cls-27" cx="192.05" cy="409.98" r="12.97"/><path class="cls-9" d="M161.07,376.57c11.93,0,21.6,7.68,21.6,17.16,0,6.77-4.93,12.62-12.1,15.41a10.7,10.7,0,0,0,3,9.18,10.57,10.57,0,0,1-10.09-7.54q-1.17.1-2.38.1c-11.93,0-21.6-7.68-21.6-17.16S149.14,376.57,161.07,376.57Z"/><path class="cls-5" d="M140.91,365c-11.93,0-21.6,7.68-21.6,17.16,0,6.77,4.93,12.62,12.1,15.41a10.7,10.7,0,0,1-3,9.18,10.57,10.57,0,0,0,10.09-7.54q1.17.1,2.38.1c11.93,0,21.6-7.68,21.6-17.16S152.84,365,140.91,365Z"/><path class="cls-23" d="M49.57,217.75H38.25a3.77,3.77,0,0,0-3.77,3.77v3.77H53.34v-3.77A3.77,3.77,0,0,0,49.57,217.75Z"/><path class="cls-28" d="M113.71,289.44H8.07a1.89,1.89,0,0,1,0-3.77H113.71a1.89,1.89,0,1,1,0,3.77Z"/><path class="cls-28" d="M96.73,242.27H25a1.89,1.89,0,1,1,0-3.77H96.73a1.89,1.89,0,1,1,0,3.77Z"/><path class="cls-25" d="M53.34,238.5H34.48a1.89,1.89,0,0,1-1.89-1.89V225.3a1.89,1.89,0,0,1,1.89-1.89H53.34a1.89,1.89,0,0,1,1.89,1.89v11.32A1.89,1.89,0,0,1,53.34,238.5Z"/><circle class="cls-10" cx="43.91" cy="230.96" r="2.36"/><path class="cls-29" d="M43.91,221.52h0a2.83,2.83,0,0,1-2.83-2.83v-2.83h5.66v2.83A2.83,2.83,0,0,1,43.91,221.52Z"/><path class="cls-30" d="M44.23,217.75h-.65a3.77,3.77,0,0,1-2.67-1.11l-1.56-1.56a3.77,3.77,0,0,1-1.11-2.67v-4.1A3.77,3.77,0,0,1,42,204.54H45.8a3.77,3.77,0,0,1,3.77,3.77v4.1a3.77,3.77,0,0,1-1.11,2.67l-1.56,1.56A3.77,3.77,0,0,1,44.23,217.75Z"/><path class="cls-31" d="M45.8,204.54H42a3.77,3.77,0,0,0-3.77,3.77v1.89a40.41,40.41,0,0,0,11.32-1.89h0A3.77,3.77,0,0,0,45.8,204.54Z"/><rect class="cls-31" x="72.21" y="210.2" width="11.32" height="9.43"/><path class="cls-32" d="M81.64,217.75H74.1a3.77,3.77,0,0,0-3.77,3.77v3.77H85.42v-3.77A3.77,3.77,0,0,0,81.64,217.75Z"/><path class="cls-25" d="M87.3,238.5H68.44a1.89,1.89,0,0,1-1.89-1.89V225.3a1.89,1.89,0,0,1,1.89-1.89H87.3a1.89,1.89,0,0,1,1.89,1.89v11.32A1.89,1.89,0,0,1,87.3,238.5Z"/><circle class="cls-10" cx="77.87" cy="230.96" r="2.36"/><path class="cls-29" d="M77.87,221.52h0A2.83,2.83,0,0,1,75,218.69v-2.83H80.7v2.83A2.83,2.83,0,0,1,77.87,221.52Z"/><path class="cls-30" d="M75.27,217l-2-2a3.77,3.77,0,0,1-1.11-2.67v-4.1A3.77,3.77,0,0,1,76,204.54h3.77a3.77,3.77,0,0,1,3.77,3.77v4.1a3.77,3.77,0,0,1-1.11,2.67l-2,2A3.67,3.67,0,0,1,75.27,217Z"/><path class="cls-31" d="M79.76,204.54H76a3.77,3.77,0,0,0-3.77,3.77v1.89a40.41,40.41,0,0,0,11.32-1.89h0A3.77,3.77,0,0,0,79.76,204.54Z"/><rect class="cls-31" x="55.23" y="257.37" width="11.32" height="9.43"/><path class="cls-20" d="M64.66,264.91H57.12a3.77,3.77,0,0,0-3.77,3.77v3.77H68.44v-3.77A3.77,3.77,0,0,0,64.66,264.91Z"/><path class="cls-25" d="M70.32,285.67H51.46a1.89,1.89,0,0,1-1.89-1.89V272.46a1.89,1.89,0,0,1,1.89-1.89H70.32a1.89,1.89,0,0,1,1.89,1.89v11.32A1.89,1.89,0,0,1,70.32,285.67Z"/><circle class="cls-10" cx="60.89" cy="278.12" r="2.36"/><path class="cls-29" d="M60.89,268.69h0a2.83,2.83,0,0,1-2.83-2.83V263h5.66v2.83A2.83,2.83,0,0,1,60.89,268.69Z"/><path class="cls-30" d="M58.29,264.2l-2-2a3.77,3.77,0,0,1-1.11-2.67v-4.1A3.77,3.77,0,0,1,59,251.71h3.77a3.77,3.77,0,0,1,3.77,3.77v4.1a3.77,3.77,0,0,1-1.11,2.67l-2,2A3.67,3.67,0,0,1,58.29,264.2Z"/><path class="cls-31" d="M62.78,251.71H59a3.77,3.77,0,0,0-3.77,3.77v1.89a40.41,40.41,0,0,0,11.32-1.89h0A3.77,3.77,0,0,0,62.78,251.71Z"/><path class="cls-33" d="M32.59,264.91H21.27a3.77,3.77,0,0,0-3.77,3.77v3.77H36.36v-3.77A3.77,3.77,0,0,0,32.59,264.91Z"/><path class="cls-25" d="M36.36,285.67H17.5a1.89,1.89,0,0,1-1.89-1.89V272.46a1.89,1.89,0,0,1,1.89-1.89H36.36a1.89,1.89,0,0,1,1.89,1.89v11.32A1.89,1.89,0,0,1,36.36,285.67Z"/><circle class="cls-10" cx="26.93" cy="278.12" r="2.36"/><path class="cls-29" d="M26.93,268.69h0a2.83,2.83,0,0,1-2.83-2.83V263h5.66v2.83A2.83,2.83,0,0,1,26.93,268.69Z"/><path class="cls-30" d="M27.25,264.91h-.65a3.77,3.77,0,0,1-2.67-1.11l-1.56-1.56a3.77,3.77,0,0,1-1.11-2.67v-4.1A3.77,3.77,0,0,1,25,251.71h3.77a3.77,3.77,0,0,1,3.77,3.77v4.1a3.77,3.77,0,0,1-1.11,2.67l-1.56,1.56A3.77,3.77,0,0,1,27.25,264.91Z"/><path class="cls-31" d="M28.82,251.71H25a3.77,3.77,0,0,0-3.77,3.77v1.89a40.41,40.41,0,0,0,11.32-1.89h0A3.77,3.77,0,0,0,28.82,251.71Z"/><path class="cls-34" d="M100.51,264.91H89.19a3.77,3.77,0,0,0-3.77,3.77v3.77h18.87v-3.77A3.77,3.77,0,0,0,100.51,264.91Z"/><path class="cls-25" d="M104.28,285.67H85.41a1.89,1.89,0,0,1-1.89-1.89V272.46a1.89,1.89,0,0,1,1.89-1.89h18.87a1.89,1.89,0,0,1,1.89,1.89v11.32A1.89,1.89,0,0,1,104.28,285.67Z"/><circle class="cls-10" cx="94.85" cy="278.12" r="2.36"/><path class="cls-29" d="M94.85,268.69h0A2.83,2.83,0,0,1,92,265.86V263h5.66v2.83A2.83,2.83,0,0,1,94.85,268.69Z"/><path class="cls-30" d="M95.17,264.91h-.65a3.77,3.77,0,0,1-2.67-1.11l-1.56-1.56a3.77,3.77,0,0,1-1.11-2.67v-4.1A3.77,3.77,0,0,1,93,251.71h3.77a3.77,3.77,0,0,1,3.77,3.77v4.1a3.77,3.77,0,0,1-1.11,2.67l-1.56,1.56A3.77,3.77,0,0,1,95.17,264.91Z"/><path class="cls-31" d="M96.73,251.71H93a3.77,3.77,0,0,0-3.77,3.77v1.89a40.41,40.41,0,0,0,11.32-1.89h0A3.77,3.77,0,0,0,96.73,251.71Z"/><rect class="cls-35" x="93.86" y="87.22" width="8.18" height="7.37"/><circle class="cls-10" cx="97.95" cy="89.89" r="0.76"/><polygon class="cls-35" points="120.77 125.61 120.77 129.7 75.13 129.7 75.13 125.61 97.95 122.57 120.77 125.61"/><polygon class="cls-36" points="117.44 118.41 120.77 125.61 75.13 125.61 78.46 118.41 97.95 115.36 117.44 118.41"/><path class="cls-35" d="M100.21,123.16H95.69a.76.76,0,1,1,0-1.52h4.53a.76.76,0,1,1,0,1.52Z"/><path class="cls-37" d="M114.66,92.56H81.24a2.78,2.78,0,0,0-2.78,2.78V118.4h39V95.34A2.78,2.78,0,0,0,114.66,92.56Z"/><circle class="cls-10" cx="97.95" cy="102.42" r="5.16"/><path class="cls-38" d="M106.15,115.46a8.68,8.68,0,0,0-16.41,0Z"/><path class="cls-15" d="M165.94,126.5a2.57,2.57,0,0,0,2.56,2.56h14.21a2.57,2.57,0,0,0,2.56-2.56v-4.1l-9.66-2.56-9.66,2.56v4.1Z"/><path class="cls-15" d="M185.27,99a2.57,2.57,0,0,0-2.56-2.56H168.5A2.57,2.57,0,0,0,165.94,99v4.1l9.66,2.56,9.66-2.56Z"/><rect class="cls-5" x="165.94" y="103.07" width="19.33" height="19.33"/><path class="cls-4" d="M177.91,100.71H173.3a1,1,0,0,1,0-1.92h4.61a1,1,0,0,1,0,1.92Z"/><path class="cls-15" d="M128.95,126.5a2.57,2.57,0,0,0,2.56,2.56h14.21a2.57,2.57,0,0,0,2.56-2.56v-4.1l-9.66-2.56-9.66,2.56Z"/><path class="cls-15" d="M148.28,99a2.57,2.57,0,0,0-2.56-2.56H131.51A2.57,2.57,0,0,0,128.95,99v4.1l9.66,2.56,9.66-2.56V99Z"/><rect class="cls-5" x="128.95" y="103.07" width="19.33" height="19.33"/><path class="cls-4" d="M140.91,100.71h-4.61a1,1,0,0,1,0-1.92h4.61a1,1,0,0,1,0,1.92Z"/><path class="cls-17" d="M162.1,116.9h-6.81l1.2-.8a1,1,0,0,0-1.07-1.6l-3.84,2.56a1,1,0,0,0,0,1.6l3.84,2.56a1,1,0,0,0,1.07-1.6l-1.2-.8h6.81a1,1,0,0,0,0-1.92Z"/><path class="cls-2" d="M162.63,106.82l-3.84-2.56a1,1,0,1,0-1.07,1.6l1.2.8h-6.81a1,1,0,0,0,0,1.92h6.81l-1.2.8a1,1,0,1,0,1.07,1.6l3.84-2.56a1,1,0,0,0,0-1.6Z"/><path class="cls-2" d="M175.1,63.84a3.34,3.34,0,0,0-3.33-3.33H103.47a3.34,3.34,0,0,0-3.33,3.33v40.81L137.69,108l37.41-3.33Z"/><path class="cls-10" d="M137.62,85.83A13.83,13.83,0,0,0,123.8,99.66h27.65A13.83,13.83,0,0,0,137.62,85.83Z"/><circle class="cls-27" cx="137.62" cy="74" r="8.5"/><rect class="cls-11" x="129.1" y="109.98" width="17.04" height="16.66"/><path class="cls-8" d="M158.06,127.89H117.18a1.25,1.25,0,1,1,0-2.5h40.89a1.25,1.25,0,1,1,0,2.5Z"/><path class="cls-8" d="M100.14,104.65V110a3.34,3.34,0,0,0,3.33,3.33h68.29A3.34,3.34,0,0,0,175.1,110v-5.33Z"/><polygon class="cls-39" points="233.11 49.48 252.03 61.73 231.96 71.99 233.11 49.48"/><polygon class="cls-39" points="432.66 155.92 428.9 178.15 411.53 163.78 432.66 155.92"/><polygon class="cls-39" points="424.16 334.77 420.47 312.53 441.57 320.46 424.16 334.77"/><polygon class="cls-39" points="278.82 448.54 257.72 440.61 275.14 426.3 278.82 448.54"/><polygon class="cls-39" points="72.77 344.58 77.71 322.59 94.29 337.86 72.77 344.58"/><polygon class="cls-39" points="68.59 169.53 88.66 159.26 87.51 181.78 68.59 169.53"/></svg>