<svg id="Layer_3" data-name="Layer 3" xmlns="http://www.w3.org/2000/svg" viewBox="0 0 500 500"><defs><style>.cls-1{fill:#ffdc64;}.cls-2{fill:#f5dcb4;}.cls-3{fill:#d5dced;}.cls-4{fill:#fff;}.cls-5{fill:#d29b6e;}.cls-6{fill:#f0c087;}.cls-7{fill:#694b4b;}.cls-8{fill:#00c3ff;}.cls-9{fill:#ff5050;}.cls-10{fill:#5b5d6e;}.cls-11{fill:#a0ffb4;}</style></defs><title>LM1</title><path class="cls-1" d="M206.79,140.53H161.41a15.13,15.13,0,0,0-15.13,15.13v15.13h75.63V155.66A15.12,15.12,0,0,0,206.79,140.53Z"/><path class="cls-2" d="M463.93,427.92H40.41a7.56,7.56,0,0,1,0-15.13H463.93a7.56,7.56,0,1,1,0,15.13Z"/><path class="cls-2" d="M395.87,238.85H108.47a7.56,7.56,0,0,1,0-15.13H395.87a7.56,7.56,0,0,1,0,15.13Z"/><path class="cls-3" d="M221.92,223.72H146.29a7.56,7.56,0,0,1-7.56-7.56V170.78a7.56,7.56,0,0,1,7.56-7.56h75.63a7.56,7.56,0,0,1,7.56,7.56v45.38A7.56,7.56,0,0,1,221.92,223.72Z"/><circle class="cls-4" cx="184.1" cy="193.47" r="9.45"/><path class="cls-5" d="M184.1,155.66h0a11.34,11.34,0,0,1-11.34-11.34V133h22.69v11.34A11.35,11.35,0,0,1,184.1,155.66Z"/><path class="cls-6" d="M185.4,140.53h-2.6a15.13,15.13,0,0,1-10.7-4.43l-6.27-6.27a15.12,15.12,0,0,1-4.43-10.7V102.72a15.13,15.13,0,0,1,15.13-15.13h15.13a15.13,15.13,0,0,1,15.13,15.13v16.42a15.13,15.13,0,0,1-4.43,10.7l-6.27,6.27A15.13,15.13,0,0,1,185.4,140.53Z"/><path class="cls-7" d="M191.66,87.59H176.54a15.13,15.13,0,0,0-15.13,15.13v7.56s22.69,0,45.38-7.56h0A15.13,15.13,0,0,0,191.66,87.59Z"/><rect class="cls-7" x="297.55" y="110.28" width="45.38" height="37.81"/><path class="cls-8" d="M335.36,140.53H305.11A15.13,15.13,0,0,0,290,155.66v15.13h60.5V155.66A15.13,15.13,0,0,0,335.36,140.53Z"/><path class="cls-3" d="M358.05,223.72H282.42a7.56,7.56,0,0,1-7.56-7.56V170.78a7.56,7.56,0,0,1,7.56-7.56h75.63a7.56,7.56,0,0,1,7.56,7.56v45.38A7.56,7.56,0,0,1,358.05,223.72Z"/><circle class="cls-4" cx="320.24" cy="193.47" r="9.45"/><path class="cls-5" d="M320.24,155.66h0a11.34,11.34,0,0,1-11.34-11.34V133h22.69v11.34A11.35,11.35,0,0,1,320.24,155.66Z"/><path class="cls-6" d="M309.83,137.69,302,129.84a15.12,15.12,0,0,1-4.43-10.7V102.72a15.13,15.13,0,0,1,15.13-15.13H327.8a15.13,15.13,0,0,1,15.13,15.13v16.42a15.13,15.13,0,0,1-4.43,10.7l-7.85,7.85A14.72,14.72,0,0,1,309.83,137.69Z"/><path class="cls-7" d="M327.8,87.59H312.67a15.13,15.13,0,0,0-15.13,15.13v7.56s22.69,0,45.38-7.56h0A15.13,15.13,0,0,0,327.8,87.59Z"/><rect class="cls-7" x="229.48" y="299.35" width="45.38" height="37.81"/><path class="cls-9" d="M267.29,329.6H237a15.13,15.13,0,0,0-15.13,15.13v15.13h60.5V344.73A15.13,15.13,0,0,0,267.29,329.6Z"/><path class="cls-3" d="M290,412.8H214.35a7.56,7.56,0,0,1-7.56-7.56V359.86a7.56,7.56,0,0,1,7.56-7.56H290a7.56,7.56,0,0,1,7.56,7.56v45.38A7.56,7.56,0,0,1,290,412.8Z"/><circle class="cls-4" cx="252.17" cy="382.55" r="9.45"/><path class="cls-5" d="M252.17,344.73h0a11.34,11.34,0,0,1-11.34-11.34V322h22.69v11.34A11.35,11.35,0,0,1,252.17,344.73Z"/><path class="cls-6" d="M241.77,326.76l-7.85-7.85a15.12,15.12,0,0,1-4.43-10.7V291.79a15.13,15.13,0,0,1,15.13-15.13h15.13a15.13,15.13,0,0,1,15.13,15.13v16.42a15.13,15.13,0,0,1-4.43,10.7l-7.85,7.85A14.71,14.71,0,0,1,241.77,326.76Z"/><path class="cls-7" d="M259.73,276.66H244.61a15.13,15.13,0,0,0-15.13,15.13v7.56s22.69,0,45.38-7.56h0A15.13,15.13,0,0,0,259.73,276.66Z"/><path class="cls-10" d="M138.72,329.6H93.35a15.13,15.13,0,0,0-15.13,15.13v15.13h75.63V344.73A15.13,15.13,0,0,0,138.72,329.6Z"/><path class="cls-3" d="M153.85,412.8H78.22a7.56,7.56,0,0,1-7.56-7.56V359.86a7.56,7.56,0,0,1,7.56-7.56h75.63a7.56,7.56,0,0,1,7.56,7.56v45.38A7.57,7.57,0,0,1,153.85,412.8Z"/><circle class="cls-4" cx="116.04" cy="382.55" r="9.45"/><path class="cls-5" d="M116,344.73h0a11.34,11.34,0,0,1-11.34-11.34V322h22.69v11.34A11.35,11.35,0,0,1,116,344.73Z"/><path class="cls-6" d="M117.33,329.6h-2.59a15.13,15.13,0,0,1-10.7-4.43l-6.27-6.27a15.12,15.12,0,0,1-4.43-10.7V291.79a15.13,15.13,0,0,1,15.13-15.13H123.6a15.13,15.13,0,0,1,15.13,15.13v16.42a15.13,15.13,0,0,1-4.43,10.7L128,325.17A15.13,15.13,0,0,1,117.33,329.6Z"/><path class="cls-7" d="M123.6,276.66H108.47a15.13,15.13,0,0,0-15.13,15.13v7.56s22.69,0,45.38-7.56h0A15.13,15.13,0,0,0,123.6,276.66Z"/><path class="cls-11" d="M411,329.6H365.61a15.13,15.13,0,0,0-15.13,15.13v15.13h75.63V344.73A15.13,15.13,0,0,0,411,329.6Z"/><path class="cls-3" d="M426.12,412.8H350.49a7.56,7.56,0,0,1-7.56-7.56V359.86a7.56,7.56,0,0,1,7.56-7.56h75.63a7.56,7.56,0,0,1,7.56,7.56v45.38A7.56,7.56,0,0,1,426.12,412.8Z"/><circle class="cls-4" cx="388.3" cy="382.55" r="9.45"/><path class="cls-5" d="M388.3,344.73h0A11.34,11.34,0,0,1,377,333.39V322h22.69v11.34A11.35,11.35,0,0,1,388.3,344.73Z"/><path class="cls-6" d="M389.6,329.6H387a15.13,15.13,0,0,1-10.7-4.43L370,318.91a15.12,15.12,0,0,1-4.43-10.7V291.79a15.13,15.13,0,0,1,15.13-15.13h15.13A15.13,15.13,0,0,1,411,291.79v16.42a15.13,15.13,0,0,1-4.43,10.7l-6.27,6.27A15.13,15.13,0,0,1,389.6,329.6Z"/><path class="cls-7" d="M395.87,276.66H380.74a15.13,15.13,0,0,0-15.13,15.13v7.56s22.69,0,45.38-7.56h0A15.13,15.13,0,0,0,395.87,276.66Z"/></svg>