<svg id="Layer_2" data-name="Layer 2" xmlns="http://www.w3.org/2000/svg" viewBox="0 0 500 500"><defs><style>.cls-1{fill:#615454;}.cls-2{fill:#fff;}.cls-3{fill:#8a7e7f;}.cls-4{fill:#ffd14d;}.cls-5{fill:#fff1cd;}.cls-6{fill:#605353;}.cls-7{fill:#ffd24d;}.cls-8{fill:#463836;}.cls-9{fill:#f99d88;}.cls-10{fill:#f14742;}.cls-11{fill:#fad4c6;}.cls-12{fill:#8b7e7f;}.cls-13{fill:#c2b8b9;}</style></defs><title>LM2</title><rect class="cls-1" x="97.46" y="216.91" width="34.36" height="30.93"/><circle class="cls-2" cx="114.63" cy="228.12" r="3.19"/><polygon class="cls-1" points="210.43 378.06 210.43 395.2 18.84 395.2 18.84 378.06 114.64 365.29 210.43 378.06"/><polygon class="cls-3" points="196.45 347.81 210.43 378.06 18.84 378.06 32.82 347.81 114.64 335.04 196.45 347.81"/><path class="cls-1" d="M124.14,367.79h-19a3.19,3.19,0,1,1,0-6.39h19a3.19,3.19,0,1,1,0,6.39Z"/><path class="cls-4" d="M184.78,239.33H44.49A11.67,11.67,0,0,0,32.82,251v96.81H196.45V251A11.67,11.67,0,0,0,184.78,239.33Z"/><circle class="cls-2" cx="114.63" cy="280.72" r="21.67"/><path class="cls-5" d="M149.07,335.46a36.42,36.42,0,0,0-68.86,0Z"/><path class="cls-6" d="M400,381.78a10.78,10.78,0,0,0,10.75,10.75h59.64a10.78,10.78,0,0,0,10.75-10.75V364.59L440.6,353.84,400,364.59v17.19Z"/><path class="cls-6" d="M481.16,266.26a10.78,10.78,0,0,0-10.75-10.75H410.78A10.78,10.78,0,0,0,400,266.26v17.19L440.6,294.2l40.57-10.75Z"/><rect class="cls-7" x="400.03" y="283.45" width="81.13" height="81.13"/><path class="cls-8" d="M450.27,273.51H430.92a4,4,0,0,1,0-8.06h19.34a4,4,0,0,1,0,8.06Z"/><path class="cls-6" d="M244.75,381.78a10.78,10.78,0,0,0,10.75,10.75h59.64a10.78,10.78,0,0,0,10.75-10.75V364.59l-40.57-10.75-40.57,10.75Z"/><path class="cls-6" d="M325.88,266.26a10.78,10.78,0,0,0-10.75-10.75H255.49a10.78,10.78,0,0,0-10.75,10.75v17.19l40.57,10.75,40.57-10.75V266.26Z"/><rect class="cls-7" x="244.75" y="283.45" width="81.13" height="81.13"/><path class="cls-8" d="M295,273.51H275.64a4,4,0,0,1,0-8.06H295a4,4,0,0,1,0,8.06Z"/><path class="cls-9" d="M383.91,341.48h-28.6l5-3.36a4,4,0,0,0-4.47-6.71l-16.12,10.75a4,4,0,0,0,0,6.71l16.12,10.75a4,4,0,0,0,4.47-6.71l-5-3.36h28.6a4,4,0,0,0,0-8.06Z"/><path class="cls-10" d="M386.15,299.17,370,288.43a4,4,0,1,0-4.47,6.71l5,3.36H342a4,4,0,1,0,0,8.06h28.6l-5,3.36a4,4,0,1,0,4.47,6.71l16.12-10.75a4,4,0,0,0,0-6.71Z"/><path class="cls-10" d="M438.48,118.78a14,14,0,0,0-14-14H137.83a14,14,0,0,0-14,14v171.3l157.59,14,157.05-14Z"/><path class="cls-2" d="M281.16,211.08a58,58,0,0,0-58,58H339.19A58,58,0,0,0,281.16,211.08Z"/><circle class="cls-11" cx="281.16" cy="161.43" r="35.66"/><rect class="cls-12" x="245.41" y="312.46" width="71.51" height="69.92"/><path class="cls-13" d="M367,387.62H195.35a5.24,5.24,0,1,1,0-10.49H367a5.24,5.24,0,1,1,0,10.49Z"/><path class="cls-13" d="M123.84,290.09v22.37a14,14,0,0,0,14,14H424.5a14,14,0,0,0,14-14V290.09Z"/></svg>