<svg id="Layer_1" data-name="Layer 1" xmlns="http://www.w3.org/2000/svg" viewBox="0 0 449.39 272.53"><defs><style>.cls-1{fill:#f14742;}.cls-2{fill:#fab9a7;}.cls-3{fill:#463836;}.cls-4{fill:#ffd24d;}.cls-5{fill:#fee191;}.cls-6{fill:#cd3f39;}.cls-7{fill:#c2b8b9;}.cls-8{fill:#1b4145;}.cls-9{fill:#fff;}.cls-10{fill:#8b7e7f;}.cls-11{fill:#609399;}.cls-12{fill:#6fc5d6;}.cls-13{fill:#b4e5ea;}</style></defs><title>Untitled-8</title><path class="cls-1" d="M143.42,181.5a21.8,21.8,0,0,0,0,43.6c.74,0,1.44,0,2.16-.11V181.61C144.86,181.54,144.16,181.5,143.42,181.5Z" transform="translate(-25.3 -111.58)"/><path class="cls-1" d="M319.27,181.5a21.8,21.8,0,1,1,0,43.6c-.74,0-1.44,0-2.16-.11V181.61C317.83,181.54,318.53,181.5,319.27,181.5Z" transform="translate(-25.3 -111.58)"/><path class="cls-1" d="M338.61,381.88a108.68,108.68,0,0,0-214.54,0Z" transform="translate(-25.3 -111.58)"/><circle class="cls-2" cx="206.04" cy="91.72" r="69.92"/><path class="cls-3" d="M231.34,247.64H153.68a4.36,4.36,0,0,1-3.87-2.36,91.72,91.72,0,1,1,163.07,0,4.36,4.36,0,0,1-7.75-4,81.91,81.91,0,0,0,9.21-38,83,83,0,0,0-166,0,81.88,81.88,0,0,0,8,35.62h75a4.36,4.36,0,0,1,0,8.72Z" transform="translate(-25.3 -111.58)"/><path class="cls-3" d="M84.31,280.43,26.83,341.75a5.72,5.72,0,0,0,8.08,8.08l61.32-57.48Z" transform="translate(-25.3 -111.58)"/><polygon class="cls-4" points="75.69 200.19 67.17 191.68 50.12 202.21 39.59 219.26 48.1 227.78 75.69 200.19"/><rect class="cls-5" x="45.39" y="283.75" width="39.01" height="39.01" transform="translate(-220.73 23.13) rotate(-45)"/><path class="cls-1" d="M119.13,283.6C102.66,300.07,95,296,87.84,288.82S76.59,274,93.06,257.53a18.44,18.44,0,0,1,26.07,26.07Z" transform="translate(-25.3 -111.58)"/><circle class="cls-6" cx="65.49" cy="161.79" r="1.73"/><circle class="cls-6" cx="66.22" cy="168.12" r="1.73"/><path class="cls-7" d="M427.09,353.93v28.73a1.46,1.46,0,0,0,2.92,0V353.93Z" transform="translate(-25.3 -111.58)"/><path class="cls-7" d="M442.06,337.45v45.2a1.46,1.46,0,0,0,2.92,0v-45.2Z" transform="translate(-25.3 -111.58)"/><rect class="cls-1" x="339.47" y="183.02" width="51.03" height="87.53"/><rect class="cls-8" x="345.31" y="188.86" width="39.36" height="29.17"/><circle class="cls-9" cx="364.98" cy="244.29" r="16.47"/><circle class="cls-1" cx="364.98" cy="244.29" r="6.42"/><path class="cls-8" d="M428.55,328.82a6.91,6.91,0,0,0-2.22,13.44h4.45a6.91,6.91,0,0,0-2.22-13.44Z" transform="translate(-25.3 -111.58)"/><path class="cls-8" d="M443.52,312.48a6.91,6.91,0,0,0-2.22,13.44h4.45a6.91,6.91,0,0,0-2.22-13.44Z" transform="translate(-25.3 -111.58)"/><rect class="cls-10" x="401.02" y="226.37" width="4.45" height="17.78"/><rect class="cls-10" x="415.99" y="210.03" width="4.45" height="17.78"/><path class="cls-8" d="M456.51,286l-1.81,6c-7.6-2.27-16-12.16-27-15.45-6.49-1.94-11.36-.48-14.6,1.47l-3.27-1,1.58-20Z" transform="translate(-25.3 -111.58)"/><path class="cls-11" d="M415.45,258.35l-5.61,18.76-3.27-1c-1.64-3.41-4.91-7.3-11.4-9.24-11-3.29-23.46.37-31.05-1.9l1.81-6Z" transform="translate(-25.3 -111.58)"/><path class="cls-12" d="M474.7,225.22,456.51,286c-7.6-2.27-16-12.16-27-15.45-6.49-1.94-11.36-.48-14.6,1.47l-3.27-1,.24-30.14,16.34-25.32s6.49-9.72,19.47-5.85C458.7,213.06,467.1,223,474.7,225.22Z" transform="translate(-25.3 -111.58)"/><path class="cls-13" d="M428.22,215.61l-16.58,55.46-3.27-1c-1.64-3.41-4.91-7.3-11.4-9.24-11-3.29-23.46.37-31.05-1.9l18.18-60.81c7.6,2.27,20-1.39,31.05,1.9C428.14,203.92,428.22,215.61,428.22,215.61Z" transform="translate(-25.3 -111.58)"/></svg>