<svg id="Layer_4" data-name="Layer 4" xmlns="http://www.w3.org/2000/svg" viewBox="0 0 500 500"><defs><style>.cls-1{fill:#6fc5d6;}.cls-2{fill:#f14742;}.cls-3{fill:#463836;}.cls-4{fill:#c2b8b9;}.cls-5{fill:#fff;}.cls-6{fill:#605353;}.cls-7{fill:#ece7ea;}.cls-8{fill:#8b7e7f;}.cls-9{fill:#f99d88;}.cls-10{fill:#ffd24d;}.cls-11{fill:#d6ced1;}.cls-12{fill:#1b4145;}</style></defs><title>LM4</title><path class="cls-1" d="M173.59,138.66H159.38a1.65,1.65,0,0,0-1.65,1.65v16.81h17.51V140.31A1.65,1.65,0,0,0,173.59,138.66Z"/><path class="cls-1" d="M202.43,138.66H188.21a1.65,1.65,0,0,0-1.65,1.65v16.81h17.51V140.31A1.65,1.65,0,0,0,202.43,138.66Z"/><path class="cls-2" d="M231.27,138.66H217.05a1.65,1.65,0,0,0-1.65,1.65v16.81h17.51V140.31A1.65,1.65,0,0,0,231.27,138.66Z"/><path class="cls-3" d="M246.12,239.39a5.28,5.28,0,0,1-5.28,5.28H102.9a5.28,5.28,0,0,1-5.28-5.28V155.8a5.28,5.28,0,0,1,5.28-5.28H240.84a5.28,5.28,0,0,1,5.28,5.28v83.59Z"/><rect class="cls-4" x="157.73" y="179.29" width="75.19" height="36.61"/><circle class="cls-5" cx="177.17" cy="197.59" r="7.42"/><circle class="cls-5" cx="213.47" cy="197.59" r="7.42"/><path class="cls-6" d="M111,227.18a2.64,2.64,0,1,0,2.64,2.64A2.64,2.64,0,0,0,111,227.18Z"/><path class="cls-6" d="M124.18,227.18a2.64,2.64,0,1,0,2.64,2.64A2.64,2.64,0,0,0,124.18,227.18Z"/><path class="cls-6" d="M137.38,227.18a2.64,2.64,0,1,0,2.64,2.64A2.64,2.64,0,0,0,137.38,227.18Z"/><path class="cls-6" d="M111,214a2.64,2.64,0,1,0,2.64,2.64A2.64,2.64,0,0,0,111,214Z"/><path class="cls-6" d="M124.18,214a2.64,2.64,0,1,0,2.64,2.64A2.64,2.64,0,0,0,124.18,214Z"/><path class="cls-6" d="M137.38,214a2.64,2.64,0,1,0,2.64,2.64A2.64,2.64,0,0,0,137.38,214Z"/><path class="cls-6" d="M111,200.78a2.64,2.64,0,1,0,2.64,2.64A2.64,2.64,0,0,0,111,200.78Z"/><path class="cls-6" d="M124.18,200.78a2.64,2.64,0,1,0,2.64,2.64A2.64,2.64,0,0,0,124.18,200.78Z"/><path class="cls-6" d="M137.38,200.78a2.64,2.64,0,1,0,2.64,2.64A2.64,2.64,0,0,0,137.38,200.78Z"/><path class="cls-6" d="M111,187.58a2.64,2.64,0,1,0,2.64,2.64A2.64,2.64,0,0,0,111,187.58Z"/><path class="cls-6" d="M124.18,187.58a2.64,2.64,0,1,0,2.64,2.64A2.64,2.64,0,0,0,124.18,187.58Z"/><path class="cls-6" d="M137.38,187.58a2.64,2.64,0,1,0,2.64,2.64A2.64,2.64,0,0,0,137.38,187.58Z"/><path class="cls-6" d="M111,174.38a2.64,2.64,0,1,0,2.64,2.64A2.64,2.64,0,0,0,111,174.38Z"/><path class="cls-6" d="M124.18,174.38a2.64,2.64,0,1,0,2.64,2.64A2.64,2.64,0,0,0,124.18,174.38Z"/><path class="cls-6" d="M137.38,174.38A2.64,2.64,0,1,0,140,177,2.64,2.64,0,0,0,137.38,174.38Z"/><polygon class="cls-7" points="255.92 80.63 255.92 234.68 276.19 242.79 284.3 263.06 379.92 263.06 379.92 80.63 255.92 80.63"/><path class="cls-8" d="M359.65,241.78H333.54a3,3,0,1,1,0-6.08h26.11a3,3,0,1,1,0,6.08Z"/><path class="cls-8" d="M359.65,112H276.19a3,3,0,1,1,0-6.08h83.46a3,3,0,0,1,0,6.08Z"/><path class="cls-8" d="M359.65,128.26H276.19a3,3,0,1,1,0-6.08h83.46a3,3,0,0,1,0,6.08Z"/><path class="cls-8" d="M359.65,144.48H276.19a3,3,0,0,1,0-6.08h83.46a3,3,0,0,1,0,6.08Z"/><path class="cls-8" d="M359.65,160.69H276.19a3,3,0,0,1,0-6.08h83.46a3,3,0,0,1,0,6.08Z"/><path class="cls-8" d="M359.65,176.91H276.19a3,3,0,1,1,0-6.08h83.46a3,3,0,0,1,0,6.08Z"/><path class="cls-8" d="M359.65,193.13H276.19a3,3,0,1,1,0-6.08h83.46a3,3,0,0,1,0,6.08Z"/><polygon class="cls-4" points="425.69 141.55 423.69 128.08 410.21 126.07 401.61 134.67 403.62 148.15 417.09 150.15 425.69 141.55"/><path class="cls-3" d="M322.09,226.81a2,2,0,0,0,2.87,2.87l12.63-7.44,1.7-9.76-9.76,1.7Z"/><polygon class="cls-9" points="340.15 196.14 329.52 214.18 337.58 222.24 355.63 211.62 353.62 198.15 340.15 196.14"/><path class="cls-2" d="M435.15,132.09a10.95,10.95,0,0,0-15.48-15.48l-9.46,9.46,15.48,15.48Z"/><rect class="cls-10" x="335.16" y="162.2" width="86.92" height="21.89" transform="translate(-11.54 318.44) rotate(-45)"/><polygon class="cls-11" points="255.92 234.68 284.3 263.06 284.3 234.68 255.92 234.68"/><path class="cls-1" d="M309.1,231.95a44.83,44.83,0,0,0-17,3.32,69.94,69.94,0,0,0-135.85,0,45,45,0,1,0-17,86.59H309.1a45,45,0,1,0,0-89.91Z"/><path class="cls-12" d="M239.68,292.16l-11.81-17.71a4.5,4.5,0,0,0-.31-.41l-.09-.1-.25-.26-.12-.11-.29-.23-.1-.08a4.3,4.3,0,0,0-.43-.26,4.68,4.68,0,0,0-.45-.21l-.12,0-.36-.12-.14,0-.37-.07-.14,0a4.49,4.49,0,0,0-.51,0,4.36,4.36,0,0,0-.51,0l-.14,0-.37.07-.14,0-.36.12-.12,0-.44.2a4.47,4.47,0,0,0-.44.27l-.1.08-.29.23-.12.11-.25.26-.09.1a4.45,4.45,0,0,0-.31.4L208.7,292.16a4.43,4.43,0,1,0,7.37,4.91l3.7-5.54v126.6a4.43,4.43,0,0,0,8.85,0V291.53l3.7,5.54a4.43,4.43,0,0,0,7.37-4.91Z"/></svg>