<svg id="Layer_5" data-name="Layer 5" xmlns="http://www.w3.org/2000/svg" viewBox="0 0 500 500"><defs><style>.cls-1{fill:#e4eaf8;}.cls-2{fill:#ff5050;}.cls-3{fill:#707487;}.cls-4{fill:#7f8499;}.cls-5{fill:#fff;}.cls-6{fill:#ffdc64;}.cls-7{fill:#7df5a5;}.cls-8{fill:#d5dced;}.cls-9{fill:#464655;}</style></defs><title>LM5</title><path class="cls-1" d="M392.22,173.71H93.16a6.1,6.1,0,0,1-6.1-6.1V94.37a6.1,6.1,0,0,1,6.1-6.1H392.22a6.1,6.1,0,0,1,6.1,6.1v73.24A6.1,6.1,0,0,1,392.22,173.71Z"/><path class="cls-2" d="M160.3,173.71H93.16a6.1,6.1,0,0,1-6.1-6.1V94.37a6.1,6.1,0,0,1,6.1-6.1H160.3a6.1,6.1,0,0,1,6.1,6.1v73.24A6.1,6.1,0,0,1,160.3,173.71Z"/><path class="cls-3" d="M294.57,124.88H190.81a6.1,6.1,0,0,1,0-12.21H294.57a6.1,6.1,0,0,1,0,12.21Z"/><path class="cls-4" d="M367.81,149.3h-116a6.1,6.1,0,0,1,0-12.21h116a6.1,6.1,0,0,1,0,12.21Z"/><path class="cls-4" d="M227.43,149.3H190.81a6.1,6.1,0,0,1,0-12.21h36.62a6.1,6.1,0,0,1,0,12.21Z"/><path class="cls-5" d="M126.73,143.19a6.1,6.1,0,1,1,0-12.21,9.15,9.15,0,1,0-9.15-9.15,6.1,6.1,0,1,1-12.21,0,21.36,21.36,0,1,1,21.36,21.36Z"/><path class="cls-5" d="M126.79,161.5a6.1,6.1,0,0,1-.06-12.21h.06a6.1,6.1,0,0,1,0,12.21Z"/><path class="cls-1" d="M392.22,283.57H93.16a6.1,6.1,0,0,1-6.1-6.1V204.23a6.1,6.1,0,0,1,6.1-6.1H392.22a6.1,6.1,0,0,1,6.1,6.1v73.24A6.1,6.1,0,0,1,392.22,283.57Z"/><path class="cls-6" d="M160.3,283.57H93.16a6.1,6.1,0,0,1-6.1-6.1V204.23a6.1,6.1,0,0,1,6.1-6.1H160.3a6.1,6.1,0,0,1,6.1,6.1v73.24A6.1,6.1,0,0,1,160.3,283.57Z"/><path class="cls-3" d="M294.57,234.74H190.81a6.1,6.1,0,0,1,0-12.21H294.57a6.1,6.1,0,0,1,0,12.21Z"/><path class="cls-4" d="M227.43,259.16H190.81a6.1,6.1,0,0,1,0-12.21h36.62a6.1,6.1,0,0,1,0,12.21Z"/><path class="cls-5" d="M126.73,253.05a6.1,6.1,0,1,1,0-12.21,9.15,9.15,0,1,0-9.15-9.15,6.1,6.1,0,1,1-12.21,0,21.36,21.36,0,1,1,21.36,21.36Z"/><path class="cls-5" d="M126.79,271.36a6.1,6.1,0,0,1-.06-12.21h.06a6.1,6.1,0,0,1,0,12.21Z"/><path class="cls-1" d="M392.22,393.43H93.16a6.1,6.1,0,0,1-6.1-6.1V314.09a6.1,6.1,0,0,1,6.1-6.1H392.22a6.1,6.1,0,0,1,6.1,6.1v73.24A6.1,6.1,0,0,1,392.22,393.43Z"/><path class="cls-7" d="M160.3,393.43H93.16a6.1,6.1,0,0,1-6.1-6.1V314.09a6.1,6.1,0,0,1,6.1-6.1H160.3a6.1,6.1,0,0,1,6.1,6.1v73.24A6.1,6.1,0,0,1,160.3,393.43Z"/><path class="cls-3" d="M294.57,344.6H190.81a6.1,6.1,0,0,1,0-12.21H294.57a6.1,6.1,0,0,1,0,12.21Z"/><path class="cls-4" d="M227.43,369H190.81a6.1,6.1,0,0,1,0-12.21h36.62a6.1,6.1,0,0,1,0,12.21Z"/><path class="cls-5" d="M126.73,362.91a6.1,6.1,0,1,1,0-12.21,9.15,9.15,0,1,0-9.15-9.15,6.1,6.1,0,0,1-12.21,0,21.36,21.36,0,1,1,21.36,21.36Z"/><path class="cls-5" d="M126.79,381.22a6.1,6.1,0,0,1-.06-12.21h.06a6.1,6.1,0,0,1,0,12.21Z"/><path class="cls-8" d="M392.22,308H361.7v36.21A15.25,15.25,0,0,0,385.32,357l2.45-1.61,10.55,25.47V314.09A6.1,6.1,0,0,0,392.22,308Z"/><path class="cls-8" d="M387.75,257.53A15.14,15.14,0,0,0,377,253.05a15.29,15.29,0,0,0-15.28,15.26v15.25h30.52a6.1,6.1,0,0,0,6.1-6.1V268.1Z"/><path class="cls-9" d="M373.91,268.32v75.87a3.05,3.05,0,0,0,4.73,2.55l14.77-9.68,18.92,45.69a6.1,6.1,0,0,0,8,3.3l9.25-3.83a6.1,6.1,0,0,0,3.3-8l-18.92-45.69L431.3,325a3.05,3.05,0,0,0,1.55-5.15l-53.73-53.73A3.05,3.05,0,0,0,373.91,268.32Z"/><path class="cls-4" d="M355.6,259.16H251.85a6.1,6.1,0,0,1-6.1-6.1h0a6.1,6.1,0,0,1,6.1-6.1H355.6a6.1,6.1,0,0,1,6.1,6.1h0A6.1,6.1,0,0,1,355.6,259.16Z"/><path class="cls-4" d="M355.6,369H251.85a6.1,6.1,0,0,1-6.1-6.1h0a6.1,6.1,0,0,1,6.1-6.1H355.6a6.1,6.1,0,0,1,6.1,6.1h0A6.1,6.1,0,0,1,355.6,369Z"/></svg>